<mxfile host="app.diagrams.net" modified="2022-04-05T08:34:15.545Z" agent="5.0 (Windows NT 10.0; Win64; x64) AppleWebKit/537.36 (KHTML, like Gecko) Chrome/100.0.4896.60 Safari/537.36" etag="ES8dMRsfB573wXBGtCkq" version="15.9.6" type="github">
  <diagram id="C5RBs43oDa-KdzZeNtuy" name="Page-1">
    <mxGraphModel dx="2875" dy="944" grid="1" gridSize="10" guides="1" tooltips="1" connect="1" arrows="1" fold="1" page="1" pageScale="1" pageWidth="827" pageHeight="1169" math="0" shadow="0">
      <root>
        <mxCell id="WIyWlLk6GJQsqaUBKTNV-0" />
        <mxCell id="WIyWlLk6GJQsqaUBKTNV-1" parent="WIyWlLk6GJQsqaUBKTNV-0" />
        <mxCell id="zkfFHV4jXpPFQw0GAbJ--0" value="User" style="swimlane;fontStyle=2;align=center;verticalAlign=top;childLayout=stackLayout;horizontal=1;startSize=26;horizontalStack=0;resizeParent=1;resizeLast=0;collapsible=1;marginBottom=0;rounded=0;shadow=0;strokeWidth=1;" parent="WIyWlLk6GJQsqaUBKTNV-1" vertex="1">
          <mxGeometry x="110" y="30" width="160" height="190" as="geometry">
            <mxRectangle x="230" y="140" width="160" height="26" as="alternateBounds" />
          </mxGeometry>
        </mxCell>
        <mxCell id="zkfFHV4jXpPFQw0GAbJ--1" value="User_id" style="text;align=left;verticalAlign=top;spacingLeft=4;spacingRight=4;overflow=hidden;rotatable=0;points=[[0,0.5],[1,0.5]];portConstraint=eastwest;" parent="zkfFHV4jXpPFQw0GAbJ--0" vertex="1">
          <mxGeometry y="26" width="160" height="26" as="geometry" />
        </mxCell>
        <mxCell id="zkfFHV4jXpPFQw0GAbJ--2" value="Username" style="text;align=left;verticalAlign=top;spacingLeft=4;spacingRight=4;overflow=hidden;rotatable=0;points=[[0,0.5],[1,0.5]];portConstraint=eastwest;rounded=0;shadow=0;html=0;" parent="zkfFHV4jXpPFQw0GAbJ--0" vertex="1">
          <mxGeometry y="52" width="160" height="26" as="geometry" />
        </mxCell>
        <mxCell id="zkfFHV4jXpPFQw0GAbJ--3" value="Email Address" style="text;align=left;verticalAlign=top;spacingLeft=4;spacingRight=4;overflow=hidden;rotatable=0;points=[[0,0.5],[1,0.5]];portConstraint=eastwest;rounded=0;shadow=0;html=0;" parent="zkfFHV4jXpPFQw0GAbJ--0" vertex="1">
          <mxGeometry y="78" width="160" height="22" as="geometry" />
        </mxCell>
        <mxCell id="gI3h-ZZx2H8kr0NiXvcH-2" value="Password" style="text;align=left;verticalAlign=top;spacingLeft=4;spacingRight=4;overflow=hidden;rotatable=0;points=[[0,0.5],[1,0.5]];portConstraint=eastwest;rounded=0;shadow=0;html=0;" vertex="1" parent="zkfFHV4jXpPFQw0GAbJ--0">
          <mxGeometry y="100" width="160" height="22" as="geometry" />
        </mxCell>
        <mxCell id="gI3h-ZZx2H8kr0NiXvcH-3" value="Dob" style="text;align=left;verticalAlign=top;spacingLeft=4;spacingRight=4;overflow=hidden;rotatable=0;points=[[0,0.5],[1,0.5]];portConstraint=eastwest;rounded=0;shadow=0;html=0;" vertex="1" parent="zkfFHV4jXpPFQw0GAbJ--0">
          <mxGeometry y="122" width="160" height="22" as="geometry" />
        </mxCell>
        <mxCell id="gI3h-ZZx2H8kr0NiXvcH-4" value="Otp" style="text;align=left;verticalAlign=top;spacingLeft=4;spacingRight=4;overflow=hidden;rotatable=0;points=[[0,0.5],[1,0.5]];portConstraint=eastwest;rounded=0;shadow=0;html=0;" vertex="1" parent="zkfFHV4jXpPFQw0GAbJ--0">
          <mxGeometry y="144" width="160" height="22" as="geometry" />
        </mxCell>
        <mxCell id="zkfFHV4jXpPFQw0GAbJ--6" value="Anime" style="swimlane;fontStyle=0;align=center;verticalAlign=top;childLayout=stackLayout;horizontal=1;startSize=26;horizontalStack=0;resizeParent=1;resizeLast=0;collapsible=1;marginBottom=0;rounded=0;shadow=0;strokeWidth=1;" parent="WIyWlLk6GJQsqaUBKTNV-1" vertex="1">
          <mxGeometry x="120" y="360" width="160" height="220" as="geometry">
            <mxRectangle x="130" y="380" width="160" height="26" as="alternateBounds" />
          </mxGeometry>
        </mxCell>
        <mxCell id="zkfFHV4jXpPFQw0GAbJ--7" value="Anime_id" style="text;align=left;verticalAlign=top;spacingLeft=4;spacingRight=4;overflow=hidden;rotatable=0;points=[[0,0.5],[1,0.5]];portConstraint=eastwest;" parent="zkfFHV4jXpPFQw0GAbJ--6" vertex="1">
          <mxGeometry y="26" width="160" height="26" as="geometry" />
        </mxCell>
        <mxCell id="zkfFHV4jXpPFQw0GAbJ--8" value="Anime_name" style="text;align=left;verticalAlign=top;spacingLeft=4;spacingRight=4;overflow=hidden;rotatable=0;points=[[0,0.5],[1,0.5]];portConstraint=eastwest;rounded=0;shadow=0;html=0;" parent="zkfFHV4jXpPFQw0GAbJ--6" vertex="1">
          <mxGeometry y="52" width="160" height="26" as="geometry" />
        </mxCell>
        <mxCell id="gI3h-ZZx2H8kr0NiXvcH-17" value="Anime_Genre" style="text;align=left;verticalAlign=top;spacingLeft=4;spacingRight=4;overflow=hidden;rotatable=0;points=[[0,0.5],[1,0.5]];portConstraint=eastwest;rounded=0;shadow=0;html=0;" vertex="1" parent="zkfFHV4jXpPFQw0GAbJ--6">
          <mxGeometry y="78" width="160" height="22" as="geometry" />
        </mxCell>
        <mxCell id="gI3h-ZZx2H8kr0NiXvcH-18" value="Synopsis" style="text;align=left;verticalAlign=top;spacingLeft=4;spacingRight=4;overflow=hidden;rotatable=0;points=[[0,0.5],[1,0.5]];portConstraint=eastwest;rounded=0;shadow=0;html=0;" vertex="1" parent="zkfFHV4jXpPFQw0GAbJ--6">
          <mxGeometry y="100" width="160" height="26" as="geometry" />
        </mxCell>
        <mxCell id="gI3h-ZZx2H8kr0NiXvcH-20" value="Realese_Date" style="text;align=left;verticalAlign=top;spacingLeft=4;spacingRight=4;overflow=hidden;rotatable=0;points=[[0,0.5],[1,0.5]];portConstraint=eastwest;rounded=0;shadow=0;html=0;" vertex="1" parent="zkfFHV4jXpPFQw0GAbJ--6">
          <mxGeometry y="126" width="160" height="26" as="geometry" />
        </mxCell>
        <mxCell id="gI3h-ZZx2H8kr0NiXvcH-22" value="Post_Date" style="text;align=left;verticalAlign=top;spacingLeft=4;spacingRight=4;overflow=hidden;rotatable=0;points=[[0,0.5],[1,0.5]];portConstraint=eastwest;rounded=0;shadow=0;html=0;" vertex="1" parent="zkfFHV4jXpPFQw0GAbJ--6">
          <mxGeometry y="152" width="160" height="26" as="geometry" />
        </mxCell>
        <mxCell id="zkfFHV4jXpPFQw0GAbJ--17" value="User_profile" style="swimlane;fontStyle=0;align=center;verticalAlign=top;childLayout=stackLayout;horizontal=1;startSize=26;horizontalStack=0;resizeParent=1;resizeLast=0;collapsible=1;marginBottom=0;rounded=0;shadow=0;strokeWidth=1;" parent="WIyWlLk6GJQsqaUBKTNV-1" vertex="1">
          <mxGeometry x="508" y="30" width="160" height="140" as="geometry">
            <mxRectangle x="550" y="140" width="160" height="26" as="alternateBounds" />
          </mxGeometry>
        </mxCell>
        <mxCell id="zkfFHV4jXpPFQw0GAbJ--19" value="profile_id" style="text;align=left;verticalAlign=top;spacingLeft=4;spacingRight=4;overflow=hidden;rotatable=0;points=[[0,0.5],[1,0.5]];portConstraint=eastwest;rounded=0;shadow=0;html=0;" parent="zkfFHV4jXpPFQw0GAbJ--17" vertex="1">
          <mxGeometry y="26" width="160" height="26" as="geometry" />
        </mxCell>
        <mxCell id="zkfFHV4jXpPFQw0GAbJ--20" value="User_id" style="text;align=left;verticalAlign=top;spacingLeft=4;spacingRight=4;overflow=hidden;rotatable=0;points=[[0,0.5],[1,0.5]];portConstraint=eastwest;rounded=0;shadow=0;html=0;" parent="zkfFHV4jXpPFQw0GAbJ--17" vertex="1">
          <mxGeometry y="52" width="160" height="26" as="geometry" />
        </mxCell>
        <mxCell id="zkfFHV4jXpPFQw0GAbJ--21" value="Fav_genre" style="text;align=left;verticalAlign=top;spacingLeft=4;spacingRight=4;overflow=hidden;rotatable=0;points=[[0,0.5],[1,0.5]];portConstraint=eastwest;rounded=0;shadow=0;html=0;" parent="zkfFHV4jXpPFQw0GAbJ--17" vertex="1">
          <mxGeometry y="78" width="160" height="26" as="geometry" />
        </mxCell>
        <mxCell id="gI3h-ZZx2H8kr0NiXvcH-5" value="About" style="text;align=left;verticalAlign=top;spacingLeft=4;spacingRight=4;overflow=hidden;rotatable=0;points=[[0,0.5],[1,0.5]];portConstraint=eastwest;rounded=0;shadow=0;html=0;" vertex="1" parent="zkfFHV4jXpPFQw0GAbJ--17">
          <mxGeometry y="104" width="160" height="26" as="geometry" />
        </mxCell>
        <mxCell id="zkfFHV4jXpPFQw0GAbJ--26" value="" style="endArrow=open;shadow=0;strokeWidth=1;rounded=0;endFill=1;edgeStyle=elbowEdgeStyle;elbow=vertical;" parent="WIyWlLk6GJQsqaUBKTNV-1" source="zkfFHV4jXpPFQw0GAbJ--0" target="zkfFHV4jXpPFQw0GAbJ--17" edge="1">
          <mxGeometry x="0.5" y="41" relative="1" as="geometry">
            <mxPoint x="380" y="192" as="sourcePoint" />
            <mxPoint x="540" y="192" as="targetPoint" />
            <mxPoint x="-40" y="32" as="offset" />
          </mxGeometry>
        </mxCell>
        <mxCell id="zkfFHV4jXpPFQw0GAbJ--27" value="1" style="resizable=0;align=left;verticalAlign=bottom;labelBackgroundColor=none;fontSize=12;" parent="zkfFHV4jXpPFQw0GAbJ--26" connectable="0" vertex="1">
          <mxGeometry x="-1" relative="1" as="geometry">
            <mxPoint x="60" y="-20" as="offset" />
          </mxGeometry>
        </mxCell>
        <mxCell id="zkfFHV4jXpPFQw0GAbJ--28" value="1" style="resizable=0;align=right;verticalAlign=bottom;labelBackgroundColor=none;fontSize=12;" parent="zkfFHV4jXpPFQw0GAbJ--26" connectable="0" vertex="1">
          <mxGeometry x="1" relative="1" as="geometry">
            <mxPoint x="-7" y="4" as="offset" />
          </mxGeometry>
        </mxCell>
        <mxCell id="zkfFHV4jXpPFQw0GAbJ--29" value="has" style="text;html=1;resizable=0;points=[];;align=center;verticalAlign=middle;labelBackgroundColor=none;rounded=0;shadow=0;strokeWidth=1;fontSize=12;" parent="zkfFHV4jXpPFQw0GAbJ--26" vertex="1" connectable="0">
          <mxGeometry x="0.5" y="49" relative="1" as="geometry">
            <mxPoint x="-59" y="39" as="offset" />
          </mxGeometry>
        </mxCell>
        <mxCell id="gI3h-ZZx2H8kr0NiXvcH-6" value="Staff_Login" style="swimlane;fontStyle=0;align=center;verticalAlign=top;childLayout=stackLayout;horizontal=1;startSize=26;horizontalStack=0;resizeParent=1;resizeLast=0;collapsible=1;marginBottom=0;rounded=0;shadow=0;strokeWidth=1;" vertex="1" parent="WIyWlLk6GJQsqaUBKTNV-1">
          <mxGeometry x="580" y="230" width="160" height="140" as="geometry">
            <mxRectangle x="550" y="140" width="160" height="26" as="alternateBounds" />
          </mxGeometry>
        </mxCell>
        <mxCell id="gI3h-ZZx2H8kr0NiXvcH-7" value="Staff_id" style="text;align=left;verticalAlign=top;spacingLeft=4;spacingRight=4;overflow=hidden;rotatable=0;points=[[0,0.5],[1,0.5]];portConstraint=eastwest;rounded=0;shadow=0;html=0;" vertex="1" parent="gI3h-ZZx2H8kr0NiXvcH-6">
          <mxGeometry y="26" width="160" height="26" as="geometry" />
        </mxCell>
        <mxCell id="gI3h-ZZx2H8kr0NiXvcH-8" value="Name" style="text;align=left;verticalAlign=top;spacingLeft=4;spacingRight=4;overflow=hidden;rotatable=0;points=[[0,0.5],[1,0.5]];portConstraint=eastwest;rounded=0;shadow=0;html=0;" vertex="1" parent="gI3h-ZZx2H8kr0NiXvcH-6">
          <mxGeometry y="52" width="160" height="26" as="geometry" />
        </mxCell>
        <mxCell id="gI3h-ZZx2H8kr0NiXvcH-9" value="Email" style="text;align=left;verticalAlign=top;spacingLeft=4;spacingRight=4;overflow=hidden;rotatable=0;points=[[0,0.5],[1,0.5]];portConstraint=eastwest;rounded=0;shadow=0;html=0;" vertex="1" parent="gI3h-ZZx2H8kr0NiXvcH-6">
          <mxGeometry y="78" width="160" height="26" as="geometry" />
        </mxCell>
        <mxCell id="gI3h-ZZx2H8kr0NiXvcH-10" value="Password" style="text;align=left;verticalAlign=top;spacingLeft=4;spacingRight=4;overflow=hidden;rotatable=0;points=[[0,0.5],[1,0.5]];portConstraint=eastwest;rounded=0;shadow=0;html=0;" vertex="1" parent="gI3h-ZZx2H8kr0NiXvcH-6">
          <mxGeometry y="104" width="160" height="26" as="geometry" />
        </mxCell>
        <mxCell id="gI3h-ZZx2H8kr0NiXvcH-23" value="" style="endArrow=none;html=1;rounded=0;" edge="1" parent="WIyWlLk6GJQsqaUBKTNV-1">
          <mxGeometry width="50" height="50" relative="1" as="geometry">
            <mxPoint x="120" y="550" as="sourcePoint" />
            <mxPoint x="280" y="550" as="targetPoint" />
            <Array as="points" />
          </mxGeometry>
        </mxCell>
        <mxCell id="gI3h-ZZx2H8kr0NiXvcH-24" value="User&amp;nbsp;" style="rounded=1;whiteSpace=wrap;html=1;" vertex="1" parent="WIyWlLk6GJQsqaUBKTNV-1">
          <mxGeometry x="80" y="950" width="120" height="40" as="geometry" />
        </mxCell>
        <mxCell id="gI3h-ZZx2H8kr0NiXvcH-25" value="" style="rounded=0;whiteSpace=wrap;html=1;" vertex="1" parent="WIyWlLk6GJQsqaUBKTNV-1">
          <mxGeometry x="80" y="1000" width="490" height="50" as="geometry" />
        </mxCell>
        <mxCell id="gI3h-ZZx2H8kr0NiXvcH-27" value="&lt;span style=&quot;text-align: left&quot;&gt;&lt;u&gt;User_id&lt;/u&gt;&lt;/span&gt;" style="text;html=1;strokeColor=none;fillColor=none;align=center;verticalAlign=middle;whiteSpace=wrap;rounded=0;" vertex="1" parent="WIyWlLk6GJQsqaUBKTNV-1">
          <mxGeometry x="80" y="1000" width="80" height="50" as="geometry" />
        </mxCell>
        <mxCell id="gI3h-ZZx2H8kr0NiXvcH-28" value="" style="endArrow=none;html=1;rounded=0;entryX=1;entryY=0;entryDx=0;entryDy=0;exitX=1;exitY=1;exitDx=0;exitDy=0;" edge="1" parent="WIyWlLk6GJQsqaUBKTNV-1" source="gI3h-ZZx2H8kr0NiXvcH-27" target="gI3h-ZZx2H8kr0NiXvcH-27">
          <mxGeometry width="50" height="50" relative="1" as="geometry">
            <mxPoint x="150" y="1050" as="sourcePoint" />
            <mxPoint x="200" y="1000" as="targetPoint" />
          </mxGeometry>
        </mxCell>
        <mxCell id="gI3h-ZZx2H8kr0NiXvcH-30" value="&lt;span style=&quot;text-align: left&quot;&gt;Username&lt;/span&gt;" style="text;html=1;strokeColor=none;fillColor=none;align=center;verticalAlign=middle;whiteSpace=wrap;rounded=0;" vertex="1" parent="WIyWlLk6GJQsqaUBKTNV-1">
          <mxGeometry x="160" y="1000" width="80" height="50" as="geometry" />
        </mxCell>
        <mxCell id="gI3h-ZZx2H8kr0NiXvcH-32" value="" style="endArrow=none;html=1;rounded=0;entryX=1;entryY=0;entryDx=0;entryDy=0;exitX=1;exitY=1;exitDx=0;exitDy=0;" edge="1" parent="WIyWlLk6GJQsqaUBKTNV-1">
          <mxGeometry width="50" height="50" relative="1" as="geometry">
            <mxPoint x="240" y="1050" as="sourcePoint" />
            <mxPoint x="240" y="1000" as="targetPoint" />
          </mxGeometry>
        </mxCell>
        <mxCell id="gI3h-ZZx2H8kr0NiXvcH-33" value="&lt;div style=&quot;text-align: left&quot;&gt;&lt;span&gt;User_email&lt;/span&gt;&lt;/div&gt;" style="text;html=1;strokeColor=none;fillColor=none;align=center;verticalAlign=middle;whiteSpace=wrap;rounded=0;" vertex="1" parent="WIyWlLk6GJQsqaUBKTNV-1">
          <mxGeometry x="240" y="1000" width="80" height="50" as="geometry" />
        </mxCell>
        <mxCell id="gI3h-ZZx2H8kr0NiXvcH-34" value="" style="endArrow=none;html=1;rounded=0;entryX=1;entryY=0;entryDx=0;entryDy=0;exitX=1;exitY=1;exitDx=0;exitDy=0;" edge="1" parent="WIyWlLk6GJQsqaUBKTNV-1">
          <mxGeometry width="50" height="50" relative="1" as="geometry">
            <mxPoint x="500" y="1050" as="sourcePoint" />
            <mxPoint x="500" y="1000" as="targetPoint" />
          </mxGeometry>
        </mxCell>
        <mxCell id="gI3h-ZZx2H8kr0NiXvcH-35" value="" style="endArrow=none;html=1;rounded=0;entryX=1;entryY=0;entryDx=0;entryDy=0;exitX=1;exitY=1;exitDx=0;exitDy=0;" edge="1" parent="WIyWlLk6GJQsqaUBKTNV-1">
          <mxGeometry width="50" height="50" relative="1" as="geometry">
            <mxPoint x="320" y="1050" as="sourcePoint" />
            <mxPoint x="320" y="1000" as="targetPoint" />
          </mxGeometry>
        </mxCell>
        <mxCell id="gI3h-ZZx2H8kr0NiXvcH-36" value="&lt;div style=&quot;text-align: left&quot;&gt;User_Password&lt;/div&gt;" style="text;html=1;strokeColor=none;fillColor=none;align=center;verticalAlign=middle;whiteSpace=wrap;rounded=0;" vertex="1" parent="WIyWlLk6GJQsqaUBKTNV-1">
          <mxGeometry x="330" y="1000" width="80" height="50" as="geometry" />
        </mxCell>
        <mxCell id="gI3h-ZZx2H8kr0NiXvcH-37" value="" style="endArrow=none;html=1;rounded=0;entryX=1;entryY=0;entryDx=0;entryDy=0;exitX=1;exitY=1;exitDx=0;exitDy=0;" edge="1" parent="WIyWlLk6GJQsqaUBKTNV-1">
          <mxGeometry width="50" height="50" relative="1" as="geometry">
            <mxPoint x="420" y="1050" as="sourcePoint" />
            <mxPoint x="420" y="1000" as="targetPoint" />
          </mxGeometry>
        </mxCell>
        <mxCell id="gI3h-ZZx2H8kr0NiXvcH-38" value="&lt;div style=&quot;text-align: left&quot;&gt;User_dob&lt;/div&gt;" style="text;html=1;strokeColor=none;fillColor=none;align=center;verticalAlign=middle;whiteSpace=wrap;rounded=0;" vertex="1" parent="WIyWlLk6GJQsqaUBKTNV-1">
          <mxGeometry x="420" y="1000" width="80" height="50" as="geometry" />
        </mxCell>
        <mxCell id="gI3h-ZZx2H8kr0NiXvcH-40" value="&lt;div style=&quot;text-align: left&quot;&gt;OTP&lt;/div&gt;" style="text;html=1;strokeColor=none;fillColor=none;align=center;verticalAlign=middle;whiteSpace=wrap;rounded=0;" vertex="1" parent="WIyWlLk6GJQsqaUBKTNV-1">
          <mxGeometry x="500" y="1000" width="80" height="50" as="geometry" />
        </mxCell>
        <mxCell id="gI3h-ZZx2H8kr0NiXvcH-41" value="User_Profile" style="rounded=1;whiteSpace=wrap;html=1;" vertex="1" parent="WIyWlLk6GJQsqaUBKTNV-1">
          <mxGeometry x="-430" y="1100" width="120" height="40" as="geometry" />
        </mxCell>
        <mxCell id="gI3h-ZZx2H8kr0NiXvcH-42" value="" style="rounded=0;whiteSpace=wrap;html=1;" vertex="1" parent="WIyWlLk6GJQsqaUBKTNV-1">
          <mxGeometry x="-430" y="1150" width="330" height="50" as="geometry" />
        </mxCell>
        <mxCell id="gI3h-ZZx2H8kr0NiXvcH-43" value="&lt;div style=&quot;text-align: left&quot;&gt;&lt;span&gt;&lt;u&gt;profile_id&lt;/u&gt;&lt;/span&gt;&lt;/div&gt;" style="text;html=1;strokeColor=none;fillColor=none;align=center;verticalAlign=middle;whiteSpace=wrap;rounded=0;" vertex="1" parent="WIyWlLk6GJQsqaUBKTNV-1">
          <mxGeometry x="-430" y="1150" width="80" height="50" as="geometry" />
        </mxCell>
        <mxCell id="gI3h-ZZx2H8kr0NiXvcH-44" value="" style="endArrow=none;html=1;rounded=0;entryX=1;entryY=0;entryDx=0;entryDy=0;exitX=1;exitY=1;exitDx=0;exitDy=0;" edge="1" parent="WIyWlLk6GJQsqaUBKTNV-1" source="gI3h-ZZx2H8kr0NiXvcH-43" target="gI3h-ZZx2H8kr0NiXvcH-43">
          <mxGeometry width="50" height="50" relative="1" as="geometry">
            <mxPoint x="-360" y="1200" as="sourcePoint" />
            <mxPoint x="-310" y="1150" as="targetPoint" />
          </mxGeometry>
        </mxCell>
        <mxCell id="gI3h-ZZx2H8kr0NiXvcH-45" value="&lt;div style=&quot;text-align: left&quot;&gt;&lt;span&gt;Userid&lt;/span&gt;&lt;/div&gt;" style="text;html=1;strokeColor=none;fillColor=none;align=center;verticalAlign=middle;whiteSpace=wrap;rounded=0;" vertex="1" parent="WIyWlLk6GJQsqaUBKTNV-1">
          <mxGeometry x="-350" y="1150" width="80" height="50" as="geometry" />
        </mxCell>
        <mxCell id="gI3h-ZZx2H8kr0NiXvcH-46" value="" style="endArrow=none;html=1;rounded=0;entryX=1;entryY=0;entryDx=0;entryDy=0;exitX=1;exitY=1;exitDx=0;exitDy=0;" edge="1" parent="WIyWlLk6GJQsqaUBKTNV-1">
          <mxGeometry width="50" height="50" relative="1" as="geometry">
            <mxPoint x="-270" y="1200" as="sourcePoint" />
            <mxPoint x="-270" y="1150" as="targetPoint" />
          </mxGeometry>
        </mxCell>
        <mxCell id="gI3h-ZZx2H8kr0NiXvcH-47" value="&lt;div style=&quot;text-align: left&quot;&gt;fav_genre&lt;/div&gt;" style="text;html=1;strokeColor=none;fillColor=none;align=center;verticalAlign=middle;whiteSpace=wrap;rounded=0;" vertex="1" parent="WIyWlLk6GJQsqaUBKTNV-1">
          <mxGeometry x="-270" y="1150" width="80" height="50" as="geometry" />
        </mxCell>
        <mxCell id="gI3h-ZZx2H8kr0NiXvcH-49" value="" style="endArrow=none;html=1;rounded=0;entryX=1;entryY=0;entryDx=0;entryDy=0;exitX=1;exitY=1;exitDx=0;exitDy=0;" edge="1" parent="WIyWlLk6GJQsqaUBKTNV-1">
          <mxGeometry width="50" height="50" relative="1" as="geometry">
            <mxPoint x="-190" y="1200" as="sourcePoint" />
            <mxPoint x="-190" y="1150" as="targetPoint" />
          </mxGeometry>
        </mxCell>
        <mxCell id="gI3h-ZZx2H8kr0NiXvcH-50" value="&lt;div style=&quot;text-align: left&quot;&gt;About&lt;/div&gt;" style="text;html=1;strokeColor=none;fillColor=none;align=center;verticalAlign=middle;whiteSpace=wrap;rounded=0;" vertex="1" parent="WIyWlLk6GJQsqaUBKTNV-1">
          <mxGeometry x="-190" y="1150" width="100" height="50" as="geometry" />
        </mxCell>
        <mxCell id="gI3h-ZZx2H8kr0NiXvcH-55" value="Staff_Login" style="rounded=1;whiteSpace=wrap;html=1;" vertex="1" parent="WIyWlLk6GJQsqaUBKTNV-1">
          <mxGeometry x="430" y="1230" width="120" height="40" as="geometry" />
        </mxCell>
        <mxCell id="gI3h-ZZx2H8kr0NiXvcH-56" value="" style="rounded=0;whiteSpace=wrap;html=1;" vertex="1" parent="WIyWlLk6GJQsqaUBKTNV-1">
          <mxGeometry x="430" y="1280" width="340" height="50" as="geometry" />
        </mxCell>
        <mxCell id="gI3h-ZZx2H8kr0NiXvcH-57" value="&lt;span style=&quot;text-align: left&quot;&gt;&lt;u&gt;Staff_id&lt;/u&gt;&lt;/span&gt;" style="text;html=1;strokeColor=none;fillColor=none;align=center;verticalAlign=middle;whiteSpace=wrap;rounded=0;" vertex="1" parent="WIyWlLk6GJQsqaUBKTNV-1">
          <mxGeometry x="430" y="1280" width="80" height="50" as="geometry" />
        </mxCell>
        <mxCell id="gI3h-ZZx2H8kr0NiXvcH-58" value="" style="endArrow=none;html=1;rounded=0;entryX=1;entryY=0;entryDx=0;entryDy=0;exitX=1;exitY=1;exitDx=0;exitDy=0;" edge="1" parent="WIyWlLk6GJQsqaUBKTNV-1" source="gI3h-ZZx2H8kr0NiXvcH-57" target="gI3h-ZZx2H8kr0NiXvcH-57">
          <mxGeometry width="50" height="50" relative="1" as="geometry">
            <mxPoint x="500" y="1330" as="sourcePoint" />
            <mxPoint x="550" y="1280" as="targetPoint" />
          </mxGeometry>
        </mxCell>
        <mxCell id="gI3h-ZZx2H8kr0NiXvcH-59" value="&lt;span style=&quot;text-align: left&quot;&gt;Staffname&lt;/span&gt;" style="text;html=1;strokeColor=none;fillColor=none;align=center;verticalAlign=middle;whiteSpace=wrap;rounded=0;" vertex="1" parent="WIyWlLk6GJQsqaUBKTNV-1">
          <mxGeometry x="510" y="1280" width="80" height="50" as="geometry" />
        </mxCell>
        <mxCell id="gI3h-ZZx2H8kr0NiXvcH-60" value="" style="endArrow=none;html=1;rounded=0;entryX=1;entryY=0;entryDx=0;entryDy=0;exitX=1;exitY=1;exitDx=0;exitDy=0;" edge="1" parent="WIyWlLk6GJQsqaUBKTNV-1">
          <mxGeometry width="50" height="50" relative="1" as="geometry">
            <mxPoint x="590" y="1330" as="sourcePoint" />
            <mxPoint x="590" y="1280" as="targetPoint" />
          </mxGeometry>
        </mxCell>
        <mxCell id="gI3h-ZZx2H8kr0NiXvcH-61" value="&lt;div style=&quot;text-align: left&quot;&gt;&lt;span&gt;Staff_email&lt;/span&gt;&lt;/div&gt;" style="text;html=1;strokeColor=none;fillColor=none;align=center;verticalAlign=middle;whiteSpace=wrap;rounded=0;" vertex="1" parent="WIyWlLk6GJQsqaUBKTNV-1">
          <mxGeometry x="590" y="1280" width="80" height="50" as="geometry" />
        </mxCell>
        <mxCell id="gI3h-ZZx2H8kr0NiXvcH-63" value="" style="endArrow=none;html=1;rounded=0;entryX=1;entryY=0;entryDx=0;entryDy=0;exitX=1;exitY=1;exitDx=0;exitDy=0;" edge="1" parent="WIyWlLk6GJQsqaUBKTNV-1">
          <mxGeometry width="50" height="50" relative="1" as="geometry">
            <mxPoint x="670" y="1330" as="sourcePoint" />
            <mxPoint x="670" y="1280" as="targetPoint" />
          </mxGeometry>
        </mxCell>
        <mxCell id="gI3h-ZZx2H8kr0NiXvcH-64" value="&lt;div style=&quot;text-align: left&quot;&gt;Staff_Password&lt;/div&gt;" style="text;html=1;strokeColor=none;fillColor=none;align=center;verticalAlign=middle;whiteSpace=wrap;rounded=0;" vertex="1" parent="WIyWlLk6GJQsqaUBKTNV-1">
          <mxGeometry x="680" y="1280" width="80" height="50" as="geometry" />
        </mxCell>
        <mxCell id="gI3h-ZZx2H8kr0NiXvcH-68" value="Anime" style="rounded=1;whiteSpace=wrap;html=1;" vertex="1" parent="WIyWlLk6GJQsqaUBKTNV-1">
          <mxGeometry x="90" y="1380" width="120" height="40" as="geometry" />
        </mxCell>
        <mxCell id="gI3h-ZZx2H8kr0NiXvcH-69" value="" style="rounded=0;whiteSpace=wrap;html=1;" vertex="1" parent="WIyWlLk6GJQsqaUBKTNV-1">
          <mxGeometry x="-310" y="1630" width="600" height="50" as="geometry" />
        </mxCell>
        <mxCell id="gI3h-ZZx2H8kr0NiXvcH-70" value="&lt;div style=&quot;text-align: left&quot;&gt;&lt;span&gt;&lt;u&gt;Season_ID&lt;/u&gt;&lt;/span&gt;&lt;/div&gt;" style="text;html=1;strokeColor=none;fillColor=none;align=center;verticalAlign=middle;whiteSpace=wrap;rounded=0;" vertex="1" parent="WIyWlLk6GJQsqaUBKTNV-1">
          <mxGeometry x="-310" y="1630" width="80" height="50" as="geometry" />
        </mxCell>
        <mxCell id="gI3h-ZZx2H8kr0NiXvcH-71" value="" style="endArrow=none;html=1;rounded=0;entryX=1;entryY=0;entryDx=0;entryDy=0;exitX=1;exitY=1;exitDx=0;exitDy=0;" edge="1" parent="WIyWlLk6GJQsqaUBKTNV-1" source="gI3h-ZZx2H8kr0NiXvcH-70" target="gI3h-ZZx2H8kr0NiXvcH-70">
          <mxGeometry width="50" height="50" relative="1" as="geometry">
            <mxPoint x="-240" y="1680" as="sourcePoint" />
            <mxPoint x="-190" y="1630" as="targetPoint" />
          </mxGeometry>
        </mxCell>
        <mxCell id="gI3h-ZZx2H8kr0NiXvcH-72" value="&lt;div style=&quot;text-align: left&quot;&gt;Anime_id&lt;/div&gt;" style="text;html=1;strokeColor=none;fillColor=none;align=center;verticalAlign=middle;whiteSpace=wrap;rounded=0;" vertex="1" parent="WIyWlLk6GJQsqaUBKTNV-1">
          <mxGeometry x="-230" y="1630" width="80" height="50" as="geometry" />
        </mxCell>
        <mxCell id="gI3h-ZZx2H8kr0NiXvcH-73" value="" style="endArrow=none;html=1;rounded=0;entryX=1;entryY=0;entryDx=0;entryDy=0;exitX=1;exitY=1;exitDx=0;exitDy=0;" edge="1" parent="WIyWlLk6GJQsqaUBKTNV-1">
          <mxGeometry width="50" height="50" relative="1" as="geometry">
            <mxPoint x="-150" y="1680" as="sourcePoint" />
            <mxPoint x="-150" y="1630" as="targetPoint" />
          </mxGeometry>
        </mxCell>
        <mxCell id="gI3h-ZZx2H8kr0NiXvcH-74" value="&lt;div style=&quot;text-align: left&quot;&gt;episode_no&lt;/div&gt;" style="text;html=1;strokeColor=none;fillColor=none;align=center;verticalAlign=middle;whiteSpace=wrap;rounded=0;" vertex="1" parent="WIyWlLk6GJQsqaUBKTNV-1">
          <mxGeometry x="-150" y="1630" width="80" height="50" as="geometry" />
        </mxCell>
        <mxCell id="gI3h-ZZx2H8kr0NiXvcH-76" value="" style="endArrow=none;html=1;rounded=0;entryX=1;entryY=0;entryDx=0;entryDy=0;exitX=1;exitY=1;exitDx=0;exitDy=0;" edge="1" parent="WIyWlLk6GJQsqaUBKTNV-1">
          <mxGeometry width="50" height="50" relative="1" as="geometry">
            <mxPoint x="-70" y="1680" as="sourcePoint" />
            <mxPoint x="-70" y="1630" as="targetPoint" />
          </mxGeometry>
        </mxCell>
        <mxCell id="gI3h-ZZx2H8kr0NiXvcH-77" value="&lt;div style=&quot;text-align: left&quot;&gt;season_no&lt;/div&gt;" style="text;html=1;strokeColor=none;fillColor=none;align=center;verticalAlign=middle;whiteSpace=wrap;rounded=0;" vertex="1" parent="WIyWlLk6GJQsqaUBKTNV-1">
          <mxGeometry x="-70" y="1630" width="100" height="50" as="geometry" />
        </mxCell>
        <mxCell id="gI3h-ZZx2H8kr0NiXvcH-78" value="" style="endArrow=none;html=1;rounded=0;entryX=1;entryY=0;entryDx=0;entryDy=0;exitX=1;exitY=1;exitDx=0;exitDy=0;" edge="1" parent="WIyWlLk6GJQsqaUBKTNV-1">
          <mxGeometry width="50" height="50" relative="1" as="geometry">
            <mxPoint x="30" y="1680" as="sourcePoint" />
            <mxPoint x="30" y="1630" as="targetPoint" />
          </mxGeometry>
        </mxCell>
        <mxCell id="gI3h-ZZx2H8kr0NiXvcH-79" value="&lt;div style=&quot;text-align: left&quot;&gt;Trailer_video&lt;/div&gt;" style="text;html=1;strokeColor=none;fillColor=none;align=center;verticalAlign=middle;whiteSpace=wrap;rounded=0;" vertex="1" parent="WIyWlLk6GJQsqaUBKTNV-1">
          <mxGeometry x="120" y="1630" width="80" height="50" as="geometry" />
        </mxCell>
        <mxCell id="gI3h-ZZx2H8kr0NiXvcH-81" value="Seasons" style="rounded=1;whiteSpace=wrap;html=1;" vertex="1" parent="WIyWlLk6GJQsqaUBKTNV-1">
          <mxGeometry x="-310" y="1570" width="120" height="40" as="geometry" />
        </mxCell>
        <mxCell id="gI3h-ZZx2H8kr0NiXvcH-82" value="" style="rounded=0;whiteSpace=wrap;html=1;" vertex="1" parent="WIyWlLk6GJQsqaUBKTNV-1">
          <mxGeometry x="90" y="1430" width="800" height="50" as="geometry" />
        </mxCell>
        <mxCell id="gI3h-ZZx2H8kr0NiXvcH-83" value="&lt;div style=&quot;text-align: left&quot;&gt;&lt;span&gt;&lt;u&gt;Anime_ID&lt;/u&gt;&lt;/span&gt;&lt;/div&gt;" style="text;html=1;strokeColor=none;fillColor=none;align=center;verticalAlign=middle;whiteSpace=wrap;rounded=0;" vertex="1" parent="WIyWlLk6GJQsqaUBKTNV-1">
          <mxGeometry x="90" y="1430" width="80" height="50" as="geometry" />
        </mxCell>
        <mxCell id="gI3h-ZZx2H8kr0NiXvcH-84" value="" style="endArrow=none;html=1;rounded=0;entryX=1;entryY=0;entryDx=0;entryDy=0;exitX=1;exitY=1;exitDx=0;exitDy=0;" edge="1" parent="WIyWlLk6GJQsqaUBKTNV-1" source="gI3h-ZZx2H8kr0NiXvcH-83" target="gI3h-ZZx2H8kr0NiXvcH-83">
          <mxGeometry width="50" height="50" relative="1" as="geometry">
            <mxPoint x="160" y="1480" as="sourcePoint" />
            <mxPoint x="210" y="1430" as="targetPoint" />
          </mxGeometry>
        </mxCell>
        <mxCell id="gI3h-ZZx2H8kr0NiXvcH-85" value="&lt;div style=&quot;text-align: left&quot;&gt;Anime_name&lt;/div&gt;" style="text;html=1;strokeColor=none;fillColor=none;align=center;verticalAlign=middle;whiteSpace=wrap;rounded=0;" vertex="1" parent="WIyWlLk6GJQsqaUBKTNV-1">
          <mxGeometry x="170" y="1430" width="80" height="50" as="geometry" />
        </mxCell>
        <mxCell id="gI3h-ZZx2H8kr0NiXvcH-86" value="" style="endArrow=none;html=1;rounded=0;entryX=1;entryY=0;entryDx=0;entryDy=0;exitX=1;exitY=1;exitDx=0;exitDy=0;" edge="1" parent="WIyWlLk6GJQsqaUBKTNV-1">
          <mxGeometry width="50" height="50" relative="1" as="geometry">
            <mxPoint x="250" y="1480" as="sourcePoint" />
            <mxPoint x="250" y="1430" as="targetPoint" />
          </mxGeometry>
        </mxCell>
        <mxCell id="gI3h-ZZx2H8kr0NiXvcH-87" value="&lt;div style=&quot;text-align: left&quot;&gt;genre&lt;/div&gt;" style="text;html=1;strokeColor=none;fillColor=none;align=center;verticalAlign=middle;whiteSpace=wrap;rounded=0;" vertex="1" parent="WIyWlLk6GJQsqaUBKTNV-1">
          <mxGeometry x="250" y="1430" width="80" height="50" as="geometry" />
        </mxCell>
        <mxCell id="gI3h-ZZx2H8kr0NiXvcH-88" value="" style="endArrow=none;html=1;rounded=0;entryX=1;entryY=0;entryDx=0;entryDy=0;exitX=1;exitY=1;exitDx=0;exitDy=0;" edge="1" parent="WIyWlLk6GJQsqaUBKTNV-1">
          <mxGeometry width="50" height="50" relative="1" as="geometry">
            <mxPoint x="510" y="1480" as="sourcePoint" />
            <mxPoint x="510" y="1430" as="targetPoint" />
          </mxGeometry>
        </mxCell>
        <mxCell id="gI3h-ZZx2H8kr0NiXvcH-89" value="" style="endArrow=none;html=1;rounded=0;entryX=1;entryY=0;entryDx=0;entryDy=0;exitX=1;exitY=1;exitDx=0;exitDy=0;" edge="1" parent="WIyWlLk6GJQsqaUBKTNV-1">
          <mxGeometry width="50" height="50" relative="1" as="geometry">
            <mxPoint x="330" y="1480" as="sourcePoint" />
            <mxPoint x="330" y="1430" as="targetPoint" />
          </mxGeometry>
        </mxCell>
        <mxCell id="gI3h-ZZx2H8kr0NiXvcH-90" value="&lt;div style=&quot;text-align: left&quot;&gt;synopsis&lt;/div&gt;" style="text;html=1;strokeColor=none;fillColor=none;align=center;verticalAlign=middle;whiteSpace=wrap;rounded=0;" vertex="1" parent="WIyWlLk6GJQsqaUBKTNV-1">
          <mxGeometry x="330" y="1430" width="100" height="50" as="geometry" />
        </mxCell>
        <mxCell id="gI3h-ZZx2H8kr0NiXvcH-91" value="" style="endArrow=none;html=1;rounded=0;entryX=1;entryY=0;entryDx=0;entryDy=0;exitX=1;exitY=1;exitDx=0;exitDy=0;" edge="1" parent="WIyWlLk6GJQsqaUBKTNV-1">
          <mxGeometry width="50" height="50" relative="1" as="geometry">
            <mxPoint x="430" y="1480" as="sourcePoint" />
            <mxPoint x="430" y="1430" as="targetPoint" />
          </mxGeometry>
        </mxCell>
        <mxCell id="gI3h-ZZx2H8kr0NiXvcH-92" value="&lt;div style=&quot;text-align: left&quot;&gt;Staff_id&lt;/div&gt;" style="text;html=1;strokeColor=none;fillColor=none;align=center;verticalAlign=middle;whiteSpace=wrap;rounded=0;" vertex="1" parent="WIyWlLk6GJQsqaUBKTNV-1">
          <mxGeometry x="430" y="1430" width="80" height="50" as="geometry" />
        </mxCell>
        <mxCell id="gI3h-ZZx2H8kr0NiXvcH-93" value="&lt;div style=&quot;text-align: left&quot;&gt;category_id&lt;/div&gt;" style="text;html=1;strokeColor=none;fillColor=none;align=center;verticalAlign=middle;whiteSpace=wrap;rounded=0;" vertex="1" parent="WIyWlLk6GJQsqaUBKTNV-1">
          <mxGeometry x="510" y="1430" width="80" height="50" as="geometry" />
        </mxCell>
        <mxCell id="gI3h-ZZx2H8kr0NiXvcH-94" value="" style="endArrow=none;html=1;rounded=0;entryX=1;entryY=0;entryDx=0;entryDy=0;exitX=1;exitY=1;exitDx=0;exitDy=0;" edge="1" parent="WIyWlLk6GJQsqaUBKTNV-1">
          <mxGeometry width="50" height="50" relative="1" as="geometry">
            <mxPoint x="580" y="1480" as="sourcePoint" />
            <mxPoint x="580" y="1430" as="targetPoint" />
          </mxGeometry>
        </mxCell>
        <mxCell id="gI3h-ZZx2H8kr0NiXvcH-95" value="&lt;div style=&quot;text-align: left&quot;&gt;release_date&lt;/div&gt;" style="text;html=1;strokeColor=none;fillColor=none;align=center;verticalAlign=middle;whiteSpace=wrap;rounded=0;" vertex="1" parent="WIyWlLk6GJQsqaUBKTNV-1">
          <mxGeometry x="580" y="1430" width="80" height="50" as="geometry" />
        </mxCell>
        <mxCell id="gI3h-ZZx2H8kr0NiXvcH-96" value="" style="endArrow=none;html=1;rounded=0;entryX=1;entryY=0;entryDx=0;entryDy=0;exitX=1;exitY=1;exitDx=0;exitDy=0;" edge="1" parent="WIyWlLk6GJQsqaUBKTNV-1">
          <mxGeometry width="50" height="50" relative="1" as="geometry">
            <mxPoint x="660" y="1480" as="sourcePoint" />
            <mxPoint x="660" y="1430" as="targetPoint" />
          </mxGeometry>
        </mxCell>
        <mxCell id="gI3h-ZZx2H8kr0NiXvcH-97" value="&lt;div style=&quot;text-align: left&quot;&gt;posted_date&lt;/div&gt;" style="text;html=1;strokeColor=none;fillColor=none;align=center;verticalAlign=middle;whiteSpace=wrap;rounded=0;" vertex="1" parent="WIyWlLk6GJQsqaUBKTNV-1">
          <mxGeometry x="660" y="1430" width="80" height="50" as="geometry" />
        </mxCell>
        <mxCell id="gI3h-ZZx2H8kr0NiXvcH-98" value="" style="endArrow=none;html=1;rounded=0;entryX=1;entryY=0;entryDx=0;entryDy=0;exitX=1;exitY=1;exitDx=0;exitDy=0;" edge="1" parent="WIyWlLk6GJQsqaUBKTNV-1">
          <mxGeometry width="50" height="50" relative="1" as="geometry">
            <mxPoint x="740" y="1480" as="sourcePoint" />
            <mxPoint x="740" y="1430" as="targetPoint" />
          </mxGeometry>
        </mxCell>
        <mxCell id="gI3h-ZZx2H8kr0NiXvcH-99" value="&lt;div style=&quot;text-align: left&quot;&gt;director&lt;/div&gt;" style="text;html=1;strokeColor=none;fillColor=none;align=center;verticalAlign=middle;whiteSpace=wrap;rounded=0;" vertex="1" parent="WIyWlLk6GJQsqaUBKTNV-1">
          <mxGeometry x="740" y="1430" width="80" height="50" as="geometry" />
        </mxCell>
        <mxCell id="gI3h-ZZx2H8kr0NiXvcH-102" value="" style="endArrow=none;html=1;rounded=0;entryX=1;entryY=0;entryDx=0;entryDy=0;exitX=1;exitY=1;exitDx=0;exitDy=0;" edge="1" parent="WIyWlLk6GJQsqaUBKTNV-1">
          <mxGeometry width="50" height="50" relative="1" as="geometry">
            <mxPoint x="810" y="1480" as="sourcePoint" />
            <mxPoint x="810" y="1430" as="targetPoint" />
          </mxGeometry>
        </mxCell>
        <mxCell id="gI3h-ZZx2H8kr0NiXvcH-103" value="&lt;div style=&quot;text-align: left&quot;&gt;Plan_id&lt;/div&gt;" style="text;html=1;strokeColor=none;fillColor=none;align=center;verticalAlign=middle;whiteSpace=wrap;rounded=0;" vertex="1" parent="WIyWlLk6GJQsqaUBKTNV-1">
          <mxGeometry x="810" y="1430" width="80" height="50" as="geometry" />
        </mxCell>
        <mxCell id="gI3h-ZZx2H8kr0NiXvcH-104" value="&lt;div style=&quot;text-align: left&quot;&gt;Description&lt;/div&gt;" style="text;html=1;strokeColor=none;fillColor=none;align=center;verticalAlign=middle;whiteSpace=wrap;rounded=0;" vertex="1" parent="WIyWlLk6GJQsqaUBKTNV-1">
          <mxGeometry x="30" y="1630" width="100" height="50" as="geometry" />
        </mxCell>
        <mxCell id="gI3h-ZZx2H8kr0NiXvcH-105" value="&lt;div style=&quot;text-align: left&quot;&gt;Status&lt;/div&gt;" style="text;html=1;strokeColor=none;fillColor=none;align=center;verticalAlign=middle;whiteSpace=wrap;rounded=0;" vertex="1" parent="WIyWlLk6GJQsqaUBKTNV-1">
          <mxGeometry x="200" y="1630" width="90" height="50" as="geometry" />
        </mxCell>
        <mxCell id="gI3h-ZZx2H8kr0NiXvcH-106" value="" style="endArrow=none;html=1;rounded=0;entryX=1;entryY=0;entryDx=0;entryDy=0;exitX=1;exitY=1;exitDx=0;exitDy=0;" edge="1" parent="WIyWlLk6GJQsqaUBKTNV-1">
          <mxGeometry width="50" height="50" relative="1" as="geometry">
            <mxPoint x="120" y="1680" as="sourcePoint" />
            <mxPoint x="120" y="1630" as="targetPoint" />
          </mxGeometry>
        </mxCell>
        <mxCell id="gI3h-ZZx2H8kr0NiXvcH-107" value="" style="endArrow=none;html=1;rounded=0;entryX=1;entryY=0;entryDx=0;entryDy=0;exitX=1;exitY=1;exitDx=0;exitDy=0;" edge="1" parent="WIyWlLk6GJQsqaUBKTNV-1">
          <mxGeometry width="50" height="50" relative="1" as="geometry">
            <mxPoint x="200" y="1680" as="sourcePoint" />
            <mxPoint x="200" y="1630" as="targetPoint" />
          </mxGeometry>
        </mxCell>
        <mxCell id="gI3h-ZZx2H8kr0NiXvcH-108" value="Episode" style="rounded=1;whiteSpace=wrap;html=1;" vertex="1" parent="WIyWlLk6GJQsqaUBKTNV-1">
          <mxGeometry x="510" y="1580" width="120" height="40" as="geometry" />
        </mxCell>
        <mxCell id="gI3h-ZZx2H8kr0NiXvcH-109" value="" style="rounded=0;whiteSpace=wrap;html=1;" vertex="1" parent="WIyWlLk6GJQsqaUBKTNV-1">
          <mxGeometry x="510" y="1630" width="390" height="50" as="geometry" />
        </mxCell>
        <mxCell id="gI3h-ZZx2H8kr0NiXvcH-110" value="&lt;span style=&quot;text-align: left&quot;&gt;&lt;u&gt;Episode_id&lt;/u&gt;&lt;/span&gt;" style="text;html=1;strokeColor=none;fillColor=none;align=center;verticalAlign=middle;whiteSpace=wrap;rounded=0;" vertex="1" parent="WIyWlLk6GJQsqaUBKTNV-1">
          <mxGeometry x="510" y="1630" width="80" height="50" as="geometry" />
        </mxCell>
        <mxCell id="gI3h-ZZx2H8kr0NiXvcH-111" value="" style="endArrow=none;html=1;rounded=0;entryX=1;entryY=0;entryDx=0;entryDy=0;exitX=1;exitY=1;exitDx=0;exitDy=0;" edge="1" parent="WIyWlLk6GJQsqaUBKTNV-1" source="gI3h-ZZx2H8kr0NiXvcH-110" target="gI3h-ZZx2H8kr0NiXvcH-110">
          <mxGeometry width="50" height="50" relative="1" as="geometry">
            <mxPoint x="580" y="1680" as="sourcePoint" />
            <mxPoint x="630" y="1630" as="targetPoint" />
          </mxGeometry>
        </mxCell>
        <mxCell id="gI3h-ZZx2H8kr0NiXvcH-112" value="&lt;div style=&quot;text-align: left&quot;&gt;&lt;span&gt;Anime_id&lt;/span&gt;&lt;/div&gt;" style="text;html=1;strokeColor=none;fillColor=none;align=center;verticalAlign=middle;whiteSpace=wrap;rounded=0;" vertex="1" parent="WIyWlLk6GJQsqaUBKTNV-1">
          <mxGeometry x="590" y="1630" width="80" height="50" as="geometry" />
        </mxCell>
        <mxCell id="gI3h-ZZx2H8kr0NiXvcH-113" value="" style="endArrow=none;html=1;rounded=0;entryX=1;entryY=0;entryDx=0;entryDy=0;exitX=1;exitY=1;exitDx=0;exitDy=0;" edge="1" parent="WIyWlLk6GJQsqaUBKTNV-1">
          <mxGeometry width="50" height="50" relative="1" as="geometry">
            <mxPoint x="670" y="1680" as="sourcePoint" />
            <mxPoint x="670" y="1630" as="targetPoint" />
          </mxGeometry>
        </mxCell>
        <mxCell id="gI3h-ZZx2H8kr0NiXvcH-114" value="&lt;div style=&quot;text-align: left&quot;&gt;Episode_no&lt;/div&gt;" style="text;html=1;strokeColor=none;fillColor=none;align=center;verticalAlign=middle;whiteSpace=wrap;rounded=0;" vertex="1" parent="WIyWlLk6GJQsqaUBKTNV-1">
          <mxGeometry x="670" y="1630" width="80" height="50" as="geometry" />
        </mxCell>
        <mxCell id="gI3h-ZZx2H8kr0NiXvcH-115" value="" style="endArrow=none;html=1;rounded=0;entryX=1;entryY=0;entryDx=0;entryDy=0;exitX=1;exitY=1;exitDx=0;exitDy=0;" edge="1" parent="WIyWlLk6GJQsqaUBKTNV-1">
          <mxGeometry width="50" height="50" relative="1" as="geometry">
            <mxPoint x="750" y="1680" as="sourcePoint" />
            <mxPoint x="750" y="1630" as="targetPoint" />
          </mxGeometry>
        </mxCell>
        <mxCell id="gI3h-ZZx2H8kr0NiXvcH-116" value="&lt;div style=&quot;text-align: left&quot;&gt;Season_no&lt;/div&gt;" style="text;html=1;strokeColor=none;fillColor=none;align=center;verticalAlign=middle;whiteSpace=wrap;rounded=0;" vertex="1" parent="WIyWlLk6GJQsqaUBKTNV-1">
          <mxGeometry x="750" y="1630" width="80" height="50" as="geometry" />
        </mxCell>
        <mxCell id="gI3h-ZZx2H8kr0NiXvcH-117" value="&lt;div style=&quot;text-align: left&quot;&gt;Video&lt;/div&gt;" style="text;html=1;strokeColor=none;fillColor=none;align=center;verticalAlign=middle;whiteSpace=wrap;rounded=0;" vertex="1" parent="WIyWlLk6GJQsqaUBKTNV-1">
          <mxGeometry x="830" y="1630" width="70" height="50" as="geometry" />
        </mxCell>
        <mxCell id="gI3h-ZZx2H8kr0NiXvcH-118" value="" style="endArrow=none;html=1;rounded=0;entryX=1;entryY=0;entryDx=0;entryDy=0;exitX=1;exitY=1;exitDx=0;exitDy=0;" edge="1" parent="WIyWlLk6GJQsqaUBKTNV-1">
          <mxGeometry width="50" height="50" relative="1" as="geometry">
            <mxPoint x="829" y="1680" as="sourcePoint" />
            <mxPoint x="829" y="1630" as="targetPoint" />
          </mxGeometry>
        </mxCell>
        <mxCell id="gI3h-ZZx2H8kr0NiXvcH-122" value="" style="rounded=0;whiteSpace=wrap;html=1;" vertex="1" parent="WIyWlLk6GJQsqaUBKTNV-1">
          <mxGeometry x="-370" y="1820" width="640" height="50" as="geometry" />
        </mxCell>
        <mxCell id="gI3h-ZZx2H8kr0NiXvcH-123" value="&lt;div style=&quot;text-align: left&quot;&gt;&lt;u&gt;Book_id&lt;/u&gt;&lt;/div&gt;" style="text;html=1;strokeColor=none;fillColor=none;align=center;verticalAlign=middle;whiteSpace=wrap;rounded=0;" vertex="1" parent="WIyWlLk6GJQsqaUBKTNV-1">
          <mxGeometry x="-370" y="1820" width="80" height="50" as="geometry" />
        </mxCell>
        <mxCell id="gI3h-ZZx2H8kr0NiXvcH-124" value="" style="endArrow=none;html=1;rounded=0;entryX=1;entryY=0;entryDx=0;entryDy=0;exitX=1;exitY=1;exitDx=0;exitDy=0;" edge="1" parent="WIyWlLk6GJQsqaUBKTNV-1" source="gI3h-ZZx2H8kr0NiXvcH-123" target="gI3h-ZZx2H8kr0NiXvcH-123">
          <mxGeometry width="50" height="50" relative="1" as="geometry">
            <mxPoint x="-300" y="1870" as="sourcePoint" />
            <mxPoint x="-250" y="1820" as="targetPoint" />
          </mxGeometry>
        </mxCell>
        <mxCell id="gI3h-ZZx2H8kr0NiXvcH-125" value="&lt;div style=&quot;text-align: left&quot;&gt;genre&lt;/div&gt;" style="text;html=1;strokeColor=none;fillColor=none;align=center;verticalAlign=middle;whiteSpace=wrap;rounded=0;" vertex="1" parent="WIyWlLk6GJQsqaUBKTNV-1">
          <mxGeometry x="-290" y="1820" width="80" height="50" as="geometry" />
        </mxCell>
        <mxCell id="gI3h-ZZx2H8kr0NiXvcH-126" value="" style="endArrow=none;html=1;rounded=0;entryX=1;entryY=0;entryDx=0;entryDy=0;exitX=1;exitY=1;exitDx=0;exitDy=0;" edge="1" parent="WIyWlLk6GJQsqaUBKTNV-1">
          <mxGeometry width="50" height="50" relative="1" as="geometry">
            <mxPoint x="-210" y="1870" as="sourcePoint" />
            <mxPoint x="-210" y="1820" as="targetPoint" />
          </mxGeometry>
        </mxCell>
        <mxCell id="gI3h-ZZx2H8kr0NiXvcH-127" value="&lt;div style=&quot;text-align: left&quot;&gt;description&lt;/div&gt;" style="text;html=1;strokeColor=none;fillColor=none;align=center;verticalAlign=middle;whiteSpace=wrap;rounded=0;" vertex="1" parent="WIyWlLk6GJQsqaUBKTNV-1">
          <mxGeometry x="-210" y="1820" width="80" height="50" as="geometry" />
        </mxCell>
        <mxCell id="gI3h-ZZx2H8kr0NiXvcH-128" value="" style="endArrow=none;html=1;rounded=0;entryX=1;entryY=0;entryDx=0;entryDy=0;exitX=1;exitY=1;exitDx=0;exitDy=0;" edge="1" parent="WIyWlLk6GJQsqaUBKTNV-1">
          <mxGeometry width="50" height="50" relative="1" as="geometry">
            <mxPoint x="-130" y="1870" as="sourcePoint" />
            <mxPoint x="-130" y="1820" as="targetPoint" />
          </mxGeometry>
        </mxCell>
        <mxCell id="gI3h-ZZx2H8kr0NiXvcH-129" value="&lt;div style=&quot;text-align: left&quot;&gt;posted_date&lt;/div&gt;" style="text;html=1;strokeColor=none;fillColor=none;align=center;verticalAlign=middle;whiteSpace=wrap;rounded=0;" vertex="1" parent="WIyWlLk6GJQsqaUBKTNV-1">
          <mxGeometry x="-130" y="1820" width="100" height="50" as="geometry" />
        </mxCell>
        <mxCell id="gI3h-ZZx2H8kr0NiXvcH-130" value="" style="endArrow=none;html=1;rounded=0;entryX=1;entryY=0;entryDx=0;entryDy=0;exitX=1;exitY=1;exitDx=0;exitDy=0;" edge="1" parent="WIyWlLk6GJQsqaUBKTNV-1">
          <mxGeometry width="50" height="50" relative="1" as="geometry">
            <mxPoint x="-30" y="1870" as="sourcePoint" />
            <mxPoint x="-30" y="1820" as="targetPoint" />
          </mxGeometry>
        </mxCell>
        <mxCell id="gI3h-ZZx2H8kr0NiXvcH-131" value="&lt;div style=&quot;text-align: left&quot;&gt;Plan_id&lt;/div&gt;" style="text;html=1;strokeColor=none;fillColor=none;align=center;verticalAlign=middle;whiteSpace=wrap;rounded=0;" vertex="1" parent="WIyWlLk6GJQsqaUBKTNV-1">
          <mxGeometry x="60" y="1820" width="70" height="50" as="geometry" />
        </mxCell>
        <mxCell id="gI3h-ZZx2H8kr0NiXvcH-132" value="Books" style="rounded=1;whiteSpace=wrap;html=1;" vertex="1" parent="WIyWlLk6GJQsqaUBKTNV-1">
          <mxGeometry x="-370" y="1760" width="120" height="40" as="geometry" />
        </mxCell>
        <mxCell id="gI3h-ZZx2H8kr0NiXvcH-133" value="&lt;div style=&quot;text-align: left&quot;&gt;writer&lt;/div&gt;" style="text;html=1;strokeColor=none;fillColor=none;align=center;verticalAlign=middle;whiteSpace=wrap;rounded=0;" vertex="1" parent="WIyWlLk6GJQsqaUBKTNV-1">
          <mxGeometry x="-30" y="1820" width="90" height="50" as="geometry" />
        </mxCell>
        <mxCell id="gI3h-ZZx2H8kr0NiXvcH-135" value="" style="endArrow=none;html=1;rounded=0;entryX=1;entryY=0;entryDx=0;entryDy=0;exitX=1;exitY=1;exitDx=0;exitDy=0;" edge="1" parent="WIyWlLk6GJQsqaUBKTNV-1">
          <mxGeometry width="50" height="50" relative="1" as="geometry">
            <mxPoint x="60" y="1870" as="sourcePoint" />
            <mxPoint x="60" y="1820" as="targetPoint" />
          </mxGeometry>
        </mxCell>
        <mxCell id="gI3h-ZZx2H8kr0NiXvcH-137" value="" style="rounded=0;whiteSpace=wrap;html=1;" vertex="1" parent="WIyWlLk6GJQsqaUBKTNV-1">
          <mxGeometry x="403" y="1840" width="337" height="50" as="geometry" />
        </mxCell>
        <mxCell id="gI3h-ZZx2H8kr0NiXvcH-138" value="&lt;div style=&quot;text-align: left&quot;&gt;&lt;u&gt;volume_id&lt;/u&gt;&lt;/div&gt;" style="text;html=1;strokeColor=none;fillColor=none;align=center;verticalAlign=middle;whiteSpace=wrap;rounded=0;" vertex="1" parent="WIyWlLk6GJQsqaUBKTNV-1">
          <mxGeometry x="403" y="1840" width="80" height="50" as="geometry" />
        </mxCell>
        <mxCell id="gI3h-ZZx2H8kr0NiXvcH-139" value="" style="endArrow=none;html=1;rounded=0;entryX=1;entryY=0;entryDx=0;entryDy=0;exitX=1;exitY=1;exitDx=0;exitDy=0;" edge="1" parent="WIyWlLk6GJQsqaUBKTNV-1" source="gI3h-ZZx2H8kr0NiXvcH-138" target="gI3h-ZZx2H8kr0NiXvcH-138">
          <mxGeometry width="50" height="50" relative="1" as="geometry">
            <mxPoint x="473" y="1890" as="sourcePoint" />
            <mxPoint x="523" y="1840" as="targetPoint" />
          </mxGeometry>
        </mxCell>
        <mxCell id="gI3h-ZZx2H8kr0NiXvcH-140" value="&lt;div style=&quot;text-align: left&quot;&gt;book_id&lt;/div&gt;" style="text;html=1;strokeColor=none;fillColor=none;align=center;verticalAlign=middle;whiteSpace=wrap;rounded=0;" vertex="1" parent="WIyWlLk6GJQsqaUBKTNV-1">
          <mxGeometry x="483" y="1840" width="80" height="50" as="geometry" />
        </mxCell>
        <mxCell id="gI3h-ZZx2H8kr0NiXvcH-141" value="" style="endArrow=none;html=1;rounded=0;entryX=1;entryY=0;entryDx=0;entryDy=0;exitX=1;exitY=1;exitDx=0;exitDy=0;" edge="1" parent="WIyWlLk6GJQsqaUBKTNV-1">
          <mxGeometry width="50" height="50" relative="1" as="geometry">
            <mxPoint x="563" y="1890" as="sourcePoint" />
            <mxPoint x="563" y="1840" as="targetPoint" />
          </mxGeometry>
        </mxCell>
        <mxCell id="gI3h-ZZx2H8kr0NiXvcH-142" value="&lt;div style=&quot;text-align: left&quot;&gt;season_no&lt;/div&gt;" style="text;html=1;strokeColor=none;fillColor=none;align=center;verticalAlign=middle;whiteSpace=wrap;rounded=0;" vertex="1" parent="WIyWlLk6GJQsqaUBKTNV-1">
          <mxGeometry x="563" y="1840" width="80" height="50" as="geometry" />
        </mxCell>
        <mxCell id="gI3h-ZZx2H8kr0NiXvcH-143" value="" style="endArrow=none;html=1;rounded=0;entryX=1;entryY=0;entryDx=0;entryDy=0;exitX=1;exitY=1;exitDx=0;exitDy=0;" edge="1" parent="WIyWlLk6GJQsqaUBKTNV-1">
          <mxGeometry width="50" height="50" relative="1" as="geometry">
            <mxPoint x="643" y="1890" as="sourcePoint" />
            <mxPoint x="643" y="1840" as="targetPoint" />
          </mxGeometry>
        </mxCell>
        <mxCell id="gI3h-ZZx2H8kr0NiXvcH-144" value="&lt;div style=&quot;text-align: left&quot;&gt;description&lt;/div&gt;" style="text;html=1;strokeColor=none;fillColor=none;align=center;verticalAlign=middle;whiteSpace=wrap;rounded=0;" vertex="1" parent="WIyWlLk6GJQsqaUBKTNV-1">
          <mxGeometry x="643" y="1840" width="100" height="50" as="geometry" />
        </mxCell>
        <mxCell id="gI3h-ZZx2H8kr0NiXvcH-147" value="Volume" style="rounded=1;whiteSpace=wrap;html=1;" vertex="1" parent="WIyWlLk6GJQsqaUBKTNV-1">
          <mxGeometry x="403" y="1780" width="120" height="40" as="geometry" />
        </mxCell>
        <mxCell id="gI3h-ZZx2H8kr0NiXvcH-150" value="" style="rounded=0;whiteSpace=wrap;html=1;" vertex="1" parent="WIyWlLk6GJQsqaUBKTNV-1">
          <mxGeometry x="-390" y="1360" width="330" height="50" as="geometry" />
        </mxCell>
        <mxCell id="gI3h-ZZx2H8kr0NiXvcH-151" value="&lt;div style=&quot;text-align: left&quot;&gt;&lt;u&gt;userlike_id&lt;/u&gt;&lt;/div&gt;" style="text;html=1;strokeColor=none;fillColor=none;align=center;verticalAlign=middle;whiteSpace=wrap;rounded=0;" vertex="1" parent="WIyWlLk6GJQsqaUBKTNV-1">
          <mxGeometry x="-390" y="1360" width="80" height="50" as="geometry" />
        </mxCell>
        <mxCell id="gI3h-ZZx2H8kr0NiXvcH-152" value="" style="endArrow=none;html=1;rounded=0;entryX=1;entryY=0;entryDx=0;entryDy=0;exitX=1;exitY=1;exitDx=0;exitDy=0;" edge="1" parent="WIyWlLk6GJQsqaUBKTNV-1" source="gI3h-ZZx2H8kr0NiXvcH-151" target="gI3h-ZZx2H8kr0NiXvcH-151">
          <mxGeometry width="50" height="50" relative="1" as="geometry">
            <mxPoint x="-320" y="1410" as="sourcePoint" />
            <mxPoint x="-270" y="1360" as="targetPoint" />
          </mxGeometry>
        </mxCell>
        <mxCell id="gI3h-ZZx2H8kr0NiXvcH-153" value="&lt;div style=&quot;text-align: left&quot;&gt;user_id&lt;/div&gt;" style="text;html=1;strokeColor=none;fillColor=none;align=center;verticalAlign=middle;whiteSpace=wrap;rounded=0;" vertex="1" parent="WIyWlLk6GJQsqaUBKTNV-1">
          <mxGeometry x="-310" y="1360" width="80" height="50" as="geometry" />
        </mxCell>
        <mxCell id="gI3h-ZZx2H8kr0NiXvcH-154" value="" style="endArrow=none;html=1;rounded=0;entryX=1;entryY=0;entryDx=0;entryDy=0;exitX=1;exitY=1;exitDx=0;exitDy=0;" edge="1" parent="WIyWlLk6GJQsqaUBKTNV-1">
          <mxGeometry width="50" height="50" relative="1" as="geometry">
            <mxPoint x="-230" y="1410" as="sourcePoint" />
            <mxPoint x="-230" y="1360" as="targetPoint" />
          </mxGeometry>
        </mxCell>
        <mxCell id="gI3h-ZZx2H8kr0NiXvcH-155" value="&lt;div style=&quot;text-align: left&quot;&gt;book_id&lt;/div&gt;" style="text;html=1;strokeColor=none;fillColor=none;align=center;verticalAlign=middle;whiteSpace=wrap;rounded=0;" vertex="1" parent="WIyWlLk6GJQsqaUBKTNV-1">
          <mxGeometry x="-230" y="1360" width="80" height="50" as="geometry" />
        </mxCell>
        <mxCell id="gI3h-ZZx2H8kr0NiXvcH-156" value="" style="endArrow=none;html=1;rounded=0;entryX=1;entryY=0;entryDx=0;entryDy=0;exitX=1;exitY=1;exitDx=0;exitDy=0;" edge="1" parent="WIyWlLk6GJQsqaUBKTNV-1">
          <mxGeometry width="50" height="50" relative="1" as="geometry">
            <mxPoint x="-150" y="1410" as="sourcePoint" />
            <mxPoint x="-150" y="1360" as="targetPoint" />
          </mxGeometry>
        </mxCell>
        <mxCell id="gI3h-ZZx2H8kr0NiXvcH-157" value="&lt;div style=&quot;text-align: left&quot;&gt;anime_id&lt;/div&gt;" style="text;html=1;strokeColor=none;fillColor=none;align=center;verticalAlign=middle;whiteSpace=wrap;rounded=0;" vertex="1" parent="WIyWlLk6GJQsqaUBKTNV-1">
          <mxGeometry x="-150" y="1360" width="100" height="50" as="geometry" />
        </mxCell>
        <mxCell id="gI3h-ZZx2H8kr0NiXvcH-159" value="User_likes" style="rounded=1;whiteSpace=wrap;html=1;" vertex="1" parent="WIyWlLk6GJQsqaUBKTNV-1">
          <mxGeometry x="-390" y="1300" width="120" height="40" as="geometry" />
        </mxCell>
        <mxCell id="gI3h-ZZx2H8kr0NiXvcH-161" value="" style="rounded=0;whiteSpace=wrap;html=1;" vertex="1" parent="WIyWlLk6GJQsqaUBKTNV-1">
          <mxGeometry x="40" y="750" width="330" height="50" as="geometry" />
        </mxCell>
        <mxCell id="gI3h-ZZx2H8kr0NiXvcH-162" value="&lt;div style=&quot;text-align: left&quot;&gt;&lt;u&gt;Bill_no&lt;/u&gt;&lt;/div&gt;" style="text;html=1;strokeColor=none;fillColor=none;align=center;verticalAlign=middle;whiteSpace=wrap;rounded=0;" vertex="1" parent="WIyWlLk6GJQsqaUBKTNV-1">
          <mxGeometry x="40" y="750" width="80" height="50" as="geometry" />
        </mxCell>
        <mxCell id="gI3h-ZZx2H8kr0NiXvcH-163" value="" style="endArrow=none;html=1;rounded=0;entryX=1;entryY=0;entryDx=0;entryDy=0;exitX=1;exitY=1;exitDx=0;exitDy=0;" edge="1" parent="WIyWlLk6GJQsqaUBKTNV-1" source="gI3h-ZZx2H8kr0NiXvcH-162" target="gI3h-ZZx2H8kr0NiXvcH-162">
          <mxGeometry width="50" height="50" relative="1" as="geometry">
            <mxPoint x="110" y="800" as="sourcePoint" />
            <mxPoint x="160" y="750" as="targetPoint" />
          </mxGeometry>
        </mxCell>
        <mxCell id="gI3h-ZZx2H8kr0NiXvcH-164" value="&lt;div style=&quot;text-align: left&quot;&gt;user_id&lt;/div&gt;" style="text;html=1;strokeColor=none;fillColor=none;align=center;verticalAlign=middle;whiteSpace=wrap;rounded=0;" vertex="1" parent="WIyWlLk6GJQsqaUBKTNV-1">
          <mxGeometry x="120" y="750" width="80" height="50" as="geometry" />
        </mxCell>
        <mxCell id="gI3h-ZZx2H8kr0NiXvcH-165" value="" style="endArrow=none;html=1;rounded=0;entryX=1;entryY=0;entryDx=0;entryDy=0;exitX=1;exitY=1;exitDx=0;exitDy=0;" edge="1" parent="WIyWlLk6GJQsqaUBKTNV-1">
          <mxGeometry width="50" height="50" relative="1" as="geometry">
            <mxPoint x="200" y="800" as="sourcePoint" />
            <mxPoint x="200" y="750" as="targetPoint" />
          </mxGeometry>
        </mxCell>
        <mxCell id="gI3h-ZZx2H8kr0NiXvcH-166" value="&lt;div style=&quot;text-align: left&quot;&gt;plan_id&lt;/div&gt;" style="text;html=1;strokeColor=none;fillColor=none;align=center;verticalAlign=middle;whiteSpace=wrap;rounded=0;" vertex="1" parent="WIyWlLk6GJQsqaUBKTNV-1">
          <mxGeometry x="200" y="750" width="80" height="50" as="geometry" />
        </mxCell>
        <mxCell id="gI3h-ZZx2H8kr0NiXvcH-167" value="" style="endArrow=none;html=1;rounded=0;entryX=1;entryY=0;entryDx=0;entryDy=0;exitX=1;exitY=1;exitDx=0;exitDy=0;" edge="1" parent="WIyWlLk6GJQsqaUBKTNV-1">
          <mxGeometry width="50" height="50" relative="1" as="geometry">
            <mxPoint x="280" y="800" as="sourcePoint" />
            <mxPoint x="280" y="750" as="targetPoint" />
          </mxGeometry>
        </mxCell>
        <mxCell id="gI3h-ZZx2H8kr0NiXvcH-168" value="&lt;div style=&quot;text-align: left&quot;&gt;date&lt;/div&gt;" style="text;html=1;strokeColor=none;fillColor=none;align=center;verticalAlign=middle;whiteSpace=wrap;rounded=0;" vertex="1" parent="WIyWlLk6GJQsqaUBKTNV-1">
          <mxGeometry x="280" y="750" width="100" height="50" as="geometry" />
        </mxCell>
        <mxCell id="gI3h-ZZx2H8kr0NiXvcH-169" value="Billing" style="rounded=1;whiteSpace=wrap;html=1;" vertex="1" parent="WIyWlLk6GJQsqaUBKTNV-1">
          <mxGeometry x="40" y="700" width="120" height="40" as="geometry" />
        </mxCell>
        <mxCell id="gI3h-ZZx2H8kr0NiXvcH-188" value="" style="endArrow=none;html=1;rounded=0;" edge="1" parent="WIyWlLk6GJQsqaUBKTNV-1">
          <mxGeometry width="50" height="50" relative="1" as="geometry">
            <mxPoint x="-220" y="600" as="sourcePoint" />
            <mxPoint x="920" y="600" as="targetPoint" />
          </mxGeometry>
        </mxCell>
        <mxCell id="gI3h-ZZx2H8kr0NiXvcH-189" value="" style="endArrow=classic;html=1;rounded=0;exitX=0.5;exitY=0;exitDx=0;exitDy=0;entryX=0.5;entryY=1;entryDx=0;entryDy=0;" edge="1" parent="WIyWlLk6GJQsqaUBKTNV-1" source="gI3h-ZZx2H8kr0NiXvcH-45" target="gI3h-ZZx2H8kr0NiXvcH-27">
          <mxGeometry width="50" height="50" relative="1" as="geometry">
            <mxPoint x="110" y="1140" as="sourcePoint" />
            <mxPoint x="160" y="1090" as="targetPoint" />
          </mxGeometry>
        </mxCell>
        <mxCell id="gI3h-ZZx2H8kr0NiXvcH-190" value="" style="endArrow=classic;html=1;rounded=0;exitX=0.5;exitY=0;exitDx=0;exitDy=0;entryX=0.5;entryY=1;entryDx=0;entryDy=0;" edge="1" parent="WIyWlLk6GJQsqaUBKTNV-1" source="gI3h-ZZx2H8kr0NiXvcH-92" target="gI3h-ZZx2H8kr0NiXvcH-57">
          <mxGeometry width="50" height="50" relative="1" as="geometry">
            <mxPoint x="540" y="1330" as="sourcePoint" />
            <mxPoint x="590" y="1280" as="targetPoint" />
          </mxGeometry>
        </mxCell>
        <mxCell id="gI3h-ZZx2H8kr0NiXvcH-191" value="" style="endArrow=classic;html=1;rounded=0;exitX=0.5;exitY=0;exitDx=0;exitDy=0;entryX=0.5;entryY=1;entryDx=0;entryDy=0;" edge="1" parent="WIyWlLk6GJQsqaUBKTNV-1" source="gI3h-ZZx2H8kr0NiXvcH-72" target="gI3h-ZZx2H8kr0NiXvcH-83">
          <mxGeometry width="50" height="50" relative="1" as="geometry">
            <mxPoint x="540" y="1510" as="sourcePoint" />
            <mxPoint x="590" y="1460" as="targetPoint" />
          </mxGeometry>
        </mxCell>
        <mxCell id="gI3h-ZZx2H8kr0NiXvcH-193" value="" style="curved=1;endArrow=classic;html=1;rounded=0;entryX=0.75;entryY=1;entryDx=0;entryDy=0;exitX=0.5;exitY=1;exitDx=0;exitDy=0;" edge="1" parent="WIyWlLk6GJQsqaUBKTNV-1" source="gI3h-ZZx2H8kr0NiXvcH-112" target="gI3h-ZZx2H8kr0NiXvcH-83">
          <mxGeometry width="50" height="50" relative="1" as="geometry">
            <mxPoint x="280" y="1690" as="sourcePoint" />
            <mxPoint x="330" y="1640" as="targetPoint" />
            <Array as="points">
              <mxPoint x="560" y="1740" />
              <mxPoint x="310" y="1610" />
            </Array>
          </mxGeometry>
        </mxCell>
        <mxCell id="gI3h-ZZx2H8kr0NiXvcH-194" value="" style="curved=1;endArrow=classic;html=1;rounded=0;entryX=0.5;entryY=1;entryDx=0;entryDy=0;exitX=0.5;exitY=1;exitDx=0;exitDy=0;" edge="1" parent="WIyWlLk6GJQsqaUBKTNV-1" source="gI3h-ZZx2H8kr0NiXvcH-140" target="gI3h-ZZx2H8kr0NiXvcH-123">
          <mxGeometry width="50" height="50" relative="1" as="geometry">
            <mxPoint x="300" y="1760" as="sourcePoint" />
            <mxPoint x="350" y="1710" as="targetPoint" />
            <Array as="points">
              <mxPoint x="470" y="1930" />
              <mxPoint y="2000" />
            </Array>
          </mxGeometry>
        </mxCell>
        <mxCell id="gI3h-ZZx2H8kr0NiXvcH-195" value="" style="endArrow=classic;html=1;rounded=0;" edge="1" parent="WIyWlLk6GJQsqaUBKTNV-1">
          <mxGeometry width="50" height="50" relative="1" as="geometry">
            <mxPoint x="-260" y="1360" as="sourcePoint" />
            <mxPoint x="120" y="1050" as="targetPoint" />
          </mxGeometry>
        </mxCell>
        <mxCell id="gI3h-ZZx2H8kr0NiXvcH-196" value="" style="endArrow=classic;html=1;rounded=0;entryX=0;entryY=0.5;entryDx=0;entryDy=0;exitX=0.5;exitY=1;exitDx=0;exitDy=0;" edge="1" parent="WIyWlLk6GJQsqaUBKTNV-1" source="gI3h-ZZx2H8kr0NiXvcH-157" target="gI3h-ZZx2H8kr0NiXvcH-83">
          <mxGeometry width="50" height="50" relative="1" as="geometry">
            <mxPoint x="-280" y="1380" as="sourcePoint" />
            <mxPoint x="-230" y="1330" as="targetPoint" />
          </mxGeometry>
        </mxCell>
        <mxCell id="gI3h-ZZx2H8kr0NiXvcH-198" value="" style="curved=1;endArrow=classic;html=1;rounded=0;exitX=0.5;exitY=1;exitDx=0;exitDy=0;entryX=0.5;entryY=1;entryDx=0;entryDy=0;" edge="1" parent="WIyWlLk6GJQsqaUBKTNV-1" source="gI3h-ZZx2H8kr0NiXvcH-155" target="gI3h-ZZx2H8kr0NiXvcH-123">
          <mxGeometry width="50" height="50" relative="1" as="geometry">
            <mxPoint x="-280" y="1520" as="sourcePoint" />
            <mxPoint x="-360" y="2060" as="targetPoint" />
            <Array as="points">
              <mxPoint x="-570" y="1490" />
              <mxPoint x="-560" y="1890" />
              <mxPoint x="-410" y="1950" />
            </Array>
          </mxGeometry>
        </mxCell>
        <mxCell id="gI3h-ZZx2H8kr0NiXvcH-199" value="" style="curved=1;endArrow=classic;html=1;rounded=0;exitX=0.5;exitY=1;exitDx=0;exitDy=0;entryX=0;entryY=0.5;entryDx=0;entryDy=0;" edge="1" parent="WIyWlLk6GJQsqaUBKTNV-1" source="gI3h-ZZx2H8kr0NiXvcH-164" target="gI3h-ZZx2H8kr0NiXvcH-27">
          <mxGeometry width="50" height="50" relative="1" as="geometry">
            <mxPoint x="560" y="930" as="sourcePoint" />
            <mxPoint x="610" y="880" as="targetPoint" />
            <Array as="points">
              <mxPoint x="-70" y="860" />
              <mxPoint x="-50" y="970" />
            </Array>
          </mxGeometry>
        </mxCell>
        <mxCell id="gI3h-ZZx2H8kr0NiXvcH-200" value="" style="rounded=0;whiteSpace=wrap;html=1;" vertex="1" parent="WIyWlLk6GJQsqaUBKTNV-1">
          <mxGeometry x="695" y="740" width="330" height="50" as="geometry" />
        </mxCell>
        <mxCell id="gI3h-ZZx2H8kr0NiXvcH-201" value="&lt;div style=&quot;text-align: left&quot;&gt;&lt;u&gt;Plan_id&lt;/u&gt;&lt;/div&gt;" style="text;html=1;strokeColor=none;fillColor=none;align=center;verticalAlign=middle;whiteSpace=wrap;rounded=0;" vertex="1" parent="WIyWlLk6GJQsqaUBKTNV-1">
          <mxGeometry x="695" y="740" width="80" height="50" as="geometry" />
        </mxCell>
        <mxCell id="gI3h-ZZx2H8kr0NiXvcH-202" value="" style="endArrow=none;html=1;rounded=0;entryX=1;entryY=0;entryDx=0;entryDy=0;exitX=1;exitY=1;exitDx=0;exitDy=0;" edge="1" parent="WIyWlLk6GJQsqaUBKTNV-1" source="gI3h-ZZx2H8kr0NiXvcH-201" target="gI3h-ZZx2H8kr0NiXvcH-201">
          <mxGeometry width="50" height="50" relative="1" as="geometry">
            <mxPoint x="765" y="790" as="sourcePoint" />
            <mxPoint x="815" y="740" as="targetPoint" />
          </mxGeometry>
        </mxCell>
        <mxCell id="gI3h-ZZx2H8kr0NiXvcH-203" value="&lt;div style=&quot;text-align: left&quot;&gt;Plan_type&lt;/div&gt;" style="text;html=1;strokeColor=none;fillColor=none;align=center;verticalAlign=middle;whiteSpace=wrap;rounded=0;" vertex="1" parent="WIyWlLk6GJQsqaUBKTNV-1">
          <mxGeometry x="775" y="740" width="80" height="50" as="geometry" />
        </mxCell>
        <mxCell id="gI3h-ZZx2H8kr0NiXvcH-204" value="" style="endArrow=none;html=1;rounded=0;entryX=1;entryY=0;entryDx=0;entryDy=0;exitX=1;exitY=1;exitDx=0;exitDy=0;" edge="1" parent="WIyWlLk6GJQsqaUBKTNV-1">
          <mxGeometry width="50" height="50" relative="1" as="geometry">
            <mxPoint x="855" y="789.9999999999995" as="sourcePoint" />
            <mxPoint x="855" y="739.9999999999995" as="targetPoint" />
          </mxGeometry>
        </mxCell>
        <mxCell id="gI3h-ZZx2H8kr0NiXvcH-205" value="&lt;div style=&quot;text-align: left&quot;&gt;amount&lt;/div&gt;" style="text;html=1;strokeColor=none;fillColor=none;align=center;verticalAlign=middle;whiteSpace=wrap;rounded=0;" vertex="1" parent="WIyWlLk6GJQsqaUBKTNV-1">
          <mxGeometry x="855" y="740" width="80" height="50" as="geometry" />
        </mxCell>
        <mxCell id="gI3h-ZZx2H8kr0NiXvcH-206" value="" style="endArrow=none;html=1;rounded=0;entryX=1;entryY=0;entryDx=0;entryDy=0;exitX=1;exitY=1;exitDx=0;exitDy=0;" edge="1" parent="WIyWlLk6GJQsqaUBKTNV-1">
          <mxGeometry width="50" height="50" relative="1" as="geometry">
            <mxPoint x="935" y="789.9999999999995" as="sourcePoint" />
            <mxPoint x="935" y="739.9999999999995" as="targetPoint" />
          </mxGeometry>
        </mxCell>
        <mxCell id="gI3h-ZZx2H8kr0NiXvcH-207" value="&lt;div style=&quot;text-align: left&quot;&gt;duration&lt;/div&gt;" style="text;html=1;strokeColor=none;fillColor=none;align=center;verticalAlign=middle;whiteSpace=wrap;rounded=0;" vertex="1" parent="WIyWlLk6GJQsqaUBKTNV-1">
          <mxGeometry x="935" y="740" width="100" height="50" as="geometry" />
        </mxCell>
        <mxCell id="gI3h-ZZx2H8kr0NiXvcH-208" value="Plans" style="rounded=1;whiteSpace=wrap;html=1;" vertex="1" parent="WIyWlLk6GJQsqaUBKTNV-1">
          <mxGeometry x="695" y="690" width="120" height="40" as="geometry" />
        </mxCell>
        <mxCell id="gI3h-ZZx2H8kr0NiXvcH-209" value="" style="curved=1;endArrow=classic;html=1;rounded=0;exitX=0.5;exitY=1;exitDx=0;exitDy=0;entryX=0.5;entryY=1;entryDx=0;entryDy=0;" edge="1" parent="WIyWlLk6GJQsqaUBKTNV-1" source="gI3h-ZZx2H8kr0NiXvcH-166" target="gI3h-ZZx2H8kr0NiXvcH-201">
          <mxGeometry width="50" height="50" relative="1" as="geometry">
            <mxPoint x="560" y="960" as="sourcePoint" />
            <mxPoint x="610" y="910" as="targetPoint" />
            <Array as="points">
              <mxPoint x="510" y="940" />
            </Array>
          </mxGeometry>
        </mxCell>
        <mxCell id="gI3h-ZZx2H8kr0NiXvcH-212" value="" style="curved=1;endArrow=classic;html=1;rounded=0;entryX=0.5;entryY=1;entryDx=0;entryDy=0;exitX=1;exitY=0.5;exitDx=0;exitDy=0;" edge="1" parent="WIyWlLk6GJQsqaUBKTNV-1" source="gI3h-ZZx2H8kr0NiXvcH-103" target="gI3h-ZZx2H8kr0NiXvcH-201">
          <mxGeometry width="50" height="50" relative="1" as="geometry">
            <mxPoint x="1070" y="1190" as="sourcePoint" />
            <mxPoint x="520" y="1060" as="targetPoint" />
            <Array as="points">
              <mxPoint x="1190" y="1070" />
            </Array>
          </mxGeometry>
        </mxCell>
        <mxCell id="gI3h-ZZx2H8kr0NiXvcH-213" value="" style="endArrow=none;html=1;rounded=0;entryX=1;entryY=0;entryDx=0;entryDy=0;exitX=1;exitY=1;exitDx=0;exitDy=0;" edge="1" parent="WIyWlLk6GJQsqaUBKTNV-1">
          <mxGeometry width="50" height="50" relative="1" as="geometry">
            <mxPoint x="129.23000000000002" y="1870" as="sourcePoint" />
            <mxPoint x="129.23000000000002" y="1820" as="targetPoint" />
          </mxGeometry>
        </mxCell>
        <mxCell id="gI3h-ZZx2H8kr0NiXvcH-214" value="&lt;div style=&quot;text-align: left&quot;&gt;category_id&lt;/div&gt;" style="text;html=1;strokeColor=none;fillColor=none;align=center;verticalAlign=middle;whiteSpace=wrap;rounded=0;" vertex="1" parent="WIyWlLk6GJQsqaUBKTNV-1">
          <mxGeometry x="130" y="1820" width="80" height="50" as="geometry" />
        </mxCell>
        <mxCell id="gI3h-ZZx2H8kr0NiXvcH-215" value="" style="rounded=0;whiteSpace=wrap;html=1;" vertex="1" parent="WIyWlLk6GJQsqaUBKTNV-1">
          <mxGeometry x="1260" y="1440" width="192" height="50" as="geometry" />
        </mxCell>
        <mxCell id="gI3h-ZZx2H8kr0NiXvcH-216" value="&lt;div style=&quot;text-align: left&quot;&gt;&lt;u&gt;Category_id&lt;/u&gt;&lt;/div&gt;" style="text;html=1;strokeColor=none;fillColor=none;align=center;verticalAlign=middle;whiteSpace=wrap;rounded=0;" vertex="1" parent="WIyWlLk6GJQsqaUBKTNV-1">
          <mxGeometry x="1260" y="1440" width="80" height="50" as="geometry" />
        </mxCell>
        <mxCell id="gI3h-ZZx2H8kr0NiXvcH-217" value="" style="endArrow=none;html=1;rounded=0;entryX=1;entryY=0;entryDx=0;entryDy=0;exitX=1;exitY=1;exitDx=0;exitDy=0;" edge="1" parent="WIyWlLk6GJQsqaUBKTNV-1" source="gI3h-ZZx2H8kr0NiXvcH-216" target="gI3h-ZZx2H8kr0NiXvcH-216">
          <mxGeometry width="50" height="50" relative="1" as="geometry">
            <mxPoint x="1330" y="1490" as="sourcePoint" />
            <mxPoint x="1380" y="1440" as="targetPoint" />
          </mxGeometry>
        </mxCell>
        <mxCell id="gI3h-ZZx2H8kr0NiXvcH-218" value="&lt;div style=&quot;text-align: left&quot;&gt;Category_name&lt;/div&gt;" style="text;html=1;strokeColor=none;fillColor=none;align=center;verticalAlign=middle;whiteSpace=wrap;rounded=0;" vertex="1" parent="WIyWlLk6GJQsqaUBKTNV-1">
          <mxGeometry x="1342" y="1440" width="110" height="50" as="geometry" />
        </mxCell>
        <mxCell id="gI3h-ZZx2H8kr0NiXvcH-219" value="" style="endArrow=none;html=1;rounded=0;entryX=1;entryY=0;entryDx=0;entryDy=0;exitX=1;exitY=1;exitDx=0;exitDy=0;" edge="1" parent="WIyWlLk6GJQsqaUBKTNV-1">
          <mxGeometry width="50" height="50" relative="1" as="geometry">
            <mxPoint x="1451" y="1490" as="sourcePoint" />
            <mxPoint x="1451" y="1440" as="targetPoint" />
          </mxGeometry>
        </mxCell>
        <mxCell id="gI3h-ZZx2H8kr0NiXvcH-220" value="Categories" style="rounded=1;whiteSpace=wrap;html=1;" vertex="1" parent="WIyWlLk6GJQsqaUBKTNV-1">
          <mxGeometry x="1260" y="1380" width="120" height="40" as="geometry" />
        </mxCell>
        <mxCell id="gI3h-ZZx2H8kr0NiXvcH-224" value="" style="endArrow=none;html=1;rounded=0;entryX=1;entryY=0;entryDx=0;entryDy=0;exitX=1;exitY=1;exitDx=0;exitDy=0;" edge="1" parent="WIyWlLk6GJQsqaUBKTNV-1">
          <mxGeometry width="50" height="50" relative="1" as="geometry">
            <mxPoint x="330" y="2090" as="sourcePoint" />
            <mxPoint x="330" y="2040" as="targetPoint" />
          </mxGeometry>
        </mxCell>
        <mxCell id="gI3h-ZZx2H8kr0NiXvcH-225" value="" style="endArrow=none;html=1;rounded=0;entryX=1;entryY=0;entryDx=0;entryDy=0;exitX=1;exitY=1;exitDx=0;exitDy=0;" edge="1" parent="WIyWlLk6GJQsqaUBKTNV-1">
          <mxGeometry width="50" height="50" relative="1" as="geometry">
            <mxPoint x="204.52000000000035" y="1870" as="sourcePoint" />
            <mxPoint x="204.52000000000035" y="1820" as="targetPoint" />
          </mxGeometry>
        </mxCell>
        <mxCell id="gI3h-ZZx2H8kr0NiXvcH-226" value="&lt;div style=&quot;text-align: left&quot;&gt;Staff_id&lt;/div&gt;" style="text;html=1;strokeColor=none;fillColor=none;align=center;verticalAlign=middle;whiteSpace=wrap;rounded=0;" vertex="1" parent="WIyWlLk6GJQsqaUBKTNV-1">
          <mxGeometry x="205" y="1820" width="70" height="50" as="geometry" />
        </mxCell>
        <mxCell id="gI3h-ZZx2H8kr0NiXvcH-227" value="" style="curved=1;endArrow=classic;html=1;rounded=0;entryX=0.5;entryY=1;entryDx=0;entryDy=0;exitX=0.5;exitY=1;exitDx=0;exitDy=0;" edge="1" parent="WIyWlLk6GJQsqaUBKTNV-1" source="gI3h-ZZx2H8kr0NiXvcH-93" target="gI3h-ZZx2H8kr0NiXvcH-216">
          <mxGeometry width="50" height="50" relative="1" as="geometry">
            <mxPoint x="960" y="1600" as="sourcePoint" />
            <mxPoint x="1010" y="1550" as="targetPoint" />
            <Array as="points">
              <mxPoint x="900" y="1610" />
            </Array>
          </mxGeometry>
        </mxCell>
        <mxCell id="gI3h-ZZx2H8kr0NiXvcH-228" value="" style="curved=1;endArrow=classic;html=1;rounded=0;entryX=0.5;entryY=1;entryDx=0;entryDy=0;exitX=0.25;exitY=1;exitDx=0;exitDy=0;" edge="1" parent="WIyWlLk6GJQsqaUBKTNV-1" source="gI3h-ZZx2H8kr0NiXvcH-214" target="gI3h-ZZx2H8kr0NiXvcH-216">
          <mxGeometry width="50" height="50" relative="1" as="geometry">
            <mxPoint x="520" y="1600" as="sourcePoint" />
            <mxPoint x="570" y="1550" as="targetPoint" />
            <Array as="points">
              <mxPoint x="320" y="2050" />
              <mxPoint x="1230" y="1920" />
            </Array>
          </mxGeometry>
        </mxCell>
      </root>
    </mxGraphModel>
  </diagram>
</mxfile>
